<svg xmlns="http://www.w3.org/2000/svg" xmlns:xlink="http://www.w3.org/1999/xlink" version="1.1" id="Capa_1" x="0px" y="0px" width="90px" height="90px" viewBox="4.5 -9.0 90.0 121.5" enable-background="new 0 0 90 90" xml:space="preserve">
<g>
	<circle cx="45.001" cy="45.001" r="5"/>
</g>
<path d="M77.002,41.501h-2.211c-1.601-13.77-12.521-24.689-26.29-26.29v-2.213c0-1.933-1.567-3.5-3.5-3.5  c-1.933,0-3.5,1.567-3.5,3.5v2.213c-13.77,1.601-24.689,12.521-26.29,26.29h-2.213c-1.933,0-3.5,1.567-3.5,3.5  c0,1.933,1.567,3.5,3.5,3.5h2.213c1.601,13.77,12.521,24.689,26.29,26.29v2.211c0,1.933,1.567,3.5,3.5,3.5  c1.933,0,3.5-1.567,3.5-3.5v-2.211c13.77-1.601,24.689-12.521,26.29-26.29h2.211c1.933,0,3.5-1.567,3.5-3.5  C80.502,43.068,78.935,41.501,77.002,41.501z M48.501,67.735v-7.734c0-1.933-1.567-3.5-3.5-3.5c-1.933,0-3.5,1.567-3.5,3.5v7.734  c-9.886-1.516-17.718-9.349-19.234-19.234h7.734c1.933,0,3.5-1.567,3.5-3.5c0-1.933-1.567-3.5-3.5-3.5h-7.734  c1.516-9.886,9.349-17.718,19.234-19.234v7.734c0,1.933,1.567,3.5,3.5,3.5c1.933,0,3.5-1.567,3.5-3.5v-7.734  c9.886,1.516,17.719,9.349,19.234,19.234h-7.734c-1.933,0-3.5,1.567-3.5,3.5c0,1.933,1.567,3.5,3.5,3.5h7.734  C66.22,58.387,58.387,66.22,48.501,67.735z"/>
<text x="0.0" y="105.75" font-size="4.5" font-weight="bold" font-family="Helvetica Neue, Helvetica, Arial-Unicode, Arial, Sans-serif" fill="#000000">Created by Jos&#233; Manuel de La&#225;</text><text x="0.0" y="110.25" font-size="4.5" font-weight="bold" font-family="Helvetica Neue, Helvetica, Arial-Unicode, Arial, Sans-serif" fill="#000000">from the Noun Project</text></svg>