<?xml version="1.0" encoding="utf-8"?>
<!-- Generator: Adobe Illustrator 18.1.1, SVG Export Plug-In . SVG Version: 6.00 Build 0)  -->
<svg version="1.1" id="Layer_1" xmlns="http://www.w3.org/2000/svg" xmlns:xlink="http://www.w3.org/1999/xlink" x="0px" y="0px"
	 viewBox="-76.2 58 38.4 31.2" enable-background="new -76.2 58 38.4 31.2" xml:space="preserve">
<g id="twitter">
	<path d="M-41.7,65.8c0,0.3,0,0.7,0,1c0,10.4-7.9,22.4-22.4,22.4c-4.4,0-8.6-1.3-12.1-3.5c0.6,0.1,1.2,0.1,1.9,0.1
		c3.7,0,7.1-1.3,9.8-3.4c-3.4-0.1-6.4-2.3-7.4-5.5c0.5,0.1,1,0.1,1.5,0.1c0.7,0,1.4-0.1,2.1-0.3c-3.6-0.7-6.3-3.9-6.3-7.7
		c0,0,0-0.1,0-0.1c1.1,0.6,2.3,0.9,3.6,1c-2.1-1.4-3.5-3.8-3.5-6.6c0-1.4,0.4-2.8,1.1-4c3.9,4.8,9.7,7.9,16.2,8.2
		c-0.1-0.6-0.2-1.2-0.2-1.8c0-4.3,3.5-7.9,7.9-7.9c2.3,0,4.3,1,5.7,2.5c1.8-0.4,3.5-1,5-1.9c-0.6,1.8-1.8,3.4-3.5,4.4
		c1.6-0.2,3.1-0.6,4.5-1.2C-38.8,63.3-40.2,64.7-41.7,65.8z"/>
</g>
</svg>
